<svg id="Layer_1" height="512" viewBox="0 0 512 512" width="512" xmlns="http://www.w3.org/2000/svg" xmlns:xlink="http://www.w3.org/1999/xlink" data-name="Layer 1"><linearGradient id="linear-gradient" gradientUnits="userSpaceOnUse" x1="266.51" x2="266.51" y1="436" y2="89.267"><stop offset=".322" stop-color="#a163f5"/><stop offset=".466" stop-color="#b074ee"/><stop offset=".752" stop-color="#d8a1dd"/><stop offset=".898" stop-color="#efbad3"/></linearGradient><linearGradient id="linear-gradient-2" x1="274.885" x2="274.885" xlink:href="#linear-gradient" y1="436" y2="89.267"/><linearGradient id="linear-gradient-3" x1="256" x2="256" xlink:href="#linear-gradient" y1="436" y2="89.267"/><path d="m303.114 97.579a6 6 0 0 0 -7.765-3.423l-62.02 24.07a6 6 0 1 0 4.342 11.188l62.02-24.07a6 6 0 0 0 3.423-7.765z" fill="url(#linear-gradient)"/><path d="m303.675 115.472-61.951 24.228a6 6 0 1 0 4.371 11.176l61.951-24.23a6 6 0 0 0 -4.371-11.176z" fill="url(#linear-gradient-2)"/><path d="m389.09 156h-36.762l-41.306-106.454a18.921 18.921 0 0 0 -24.453-10.769l-5.454 2.116-3.8-9.817a18.917 18.917 0 0 0 -24.453-10.77l-99.986 38.794a18.916 18.916 0 0 0 -10.79 24.446l28.114 72.454h-47.29a23.5 23.5 0 0 0 0 47h3.09l18.543 262.987a36.078 36.078 0 0 0 35.037 27.013h155.84a35.539 35.539 0 0 0 34.527-27.024l18.053-262.976h1.09a23.5 23.5 0 0 0 0-47zm-235.818-76.794a6.916 6.916 0 0 1 3.939-8.912l99.993-38.8a6.9 6.9 0 0 1 8.921 3.925l3.8 9.817-55.645 21.59a5.994 5.994 0 0 0 -3.192 2.9l-19.35 38.55a6 6 0 0 0 -.257 4.794l.055.147 16.6 42.78h-25.068zm65.914 16.851-9.794 3.8 6.355-12.657zm-80.659 106.943h43.91l-23.737 11.407-20.051-9.671zm83.331 137.749 35.642-17.283 35.642 17.283-35.642 17.284zm71.3 47.91-35.658 17.29-35.655-17.29 35.655-17.29zm-71.307-95.818 35.649-17.289 35.652 17.289-35.652 17.288zm0-47.915 35.651-17.29 35.653 17.29-35.655 17.289zm21.9 23.957-35.651 17.289-35.652-17.288 35.651-17.29zm0 47.914-35.642 17.284-35.652-17.288 35.643-17.284zm0 47.9-35.655 17.29-35.641-17.284 35.654-17.289zm0 47.916-35.646 17.287-35.655-17.288 35.644-17.285zm13.751 6.668 35.644 17.285-35.646 17.288-35.644-17.284zm13.751-6.668 35.655-17.29 35.644 17.285-35.652 17.292zm35.655-30.626-35.657-17.287 35.642-17.283 35.654 17.289zm-35.657-65.187 35.649-17.291 35.642 17.284-35.652 17.288zm0-47.914 35.649-17.286 35.652 17.289-35.652 17.283zm0-47.916 35.649-17.29 35.656 17.29-35.656 17.287zm-13.751-6.46-23.731-11.51h47.468zm-13.753 6.459-35.647 17.289-35.651-17.289 35.651-17.289zm-104.175-2.6 5.371 2.6-5.032 2.441zm1.207 17.961 17.915-8.688 35.65 17.289-35.644 17.285-16.716-8.107zm2.124 31.57 2.038.988-1.91.926zm1 14.83 14.792-7.174 35.651 17.289-35.646 17.28-13.4-6.5zm3.12 46.4 11.681-5.665 35.652 17.289-35.656 17.285-10.06-4.879zm3.121 46.4 8.557-4.15 35.642 17.283-35.643 17.28-6.729-3.263zm3.12 46.389 5.435-2.635 35.655 17.29-35.654 17.285-3.4-1.649zm26.316 59.081a23.848 23.848 0 0 1 -21.489-13.494l.61-.289 28.412 13.783zm-7.127-20.474 35.652-17.288 35.644 17.284-35.649 17.288zm56.631 20.474 28.416-13.78 28.416 13.78zm42.167-20.478 35.649-17.284 35.652 17.288-35.652 17.284zm64.169 20.478h-7.533l28.413-13.79.615.306a23.847 23.847 0 0 1 -21.495 13.484zm24.28-28.79-3.4 1.649-35.654-17.289 35.654-17.29 5.435 2.635zm3.331-49.53-6.729 3.263-35.644-17.284 35.642-17.283 8.557 4.15zm3.33-49.52-10.061 4.879-35.656-17.289 35.656-17.289 11.681 5.665zm3.331-49.531-13.395 6.5-35.642-17.284 35.651-17.289 14.792 7.174zm2.275-33.819-1.91-.926 2.038-.988zm1.055-15.7-16.716 8.107-35.651-17.29 35.645-17.288 17.916 8.687zm2.065-30.7-5.032-2.44 5.371-2.6zm1.267-18.726-20.054 9.775-23.732-11.459h43.905zm20.775-17.134a11.412 11.412 0 0 1 -8.039 3.45h-266.18a11.5 11.5 0 0 1 0-23h178.85a6 6 0 0 0 0-12h-5.555l20.23-7.912a6 6 0 1 0 -4.37-11.176l-48.807 19.088h-42.25l-16.108-41.527 24.225-9.4a6 6 0 0 0 3.424-7.764l-8.33-21.467 66.7-25.88a6.905 6.905 0 0 1 8.924 3.928l39.613 102.11h-3.671a6 6 0 0 0 0 12h53.3a11.4 11.4 0 0 1 11.37 11.4 11.537 11.537 0 0 1 -3.327 8.15z" fill="url(#linear-gradient-3)"/></svg>